<?xml version="1.0" encoding="utf-8"?>
<!-- Generator: Adobe Illustrator 24.1.0, SVG Export Plug-In . SVG Version: 6.00 Build 0)  -->
<svg version="1.1" id="Calque_1" xmlns="http://www.w3.org/2000/svg" xmlns:xlink="http://www.w3.org/1999/xlink" x="0px" y="0px"
	 viewBox="0 0 211.9 189.3" style="enable-background:new 0 0 211.9 189.3;" xml:space="preserve">
<style type="text/css">
	.st0{fill:#FFD000;}
	.st1{fill:#F19300;}
	.st2{fill:#E6511E;}
	.st3{fill:#BD0926;}
	.st4{fill:#92117E;}
	.st5{fill:#622280;}
	.st6{fill:#172982;}
	.st7{fill:#0099C6;}
	.st8{fill:#009F95;}
	.st9{fill:#C8D20A;}
	.st10{fill:#FFFFFF;}
</style>
<g>
	<path class="st0" d="M146.7,61.6c-0.8-2.6,0.7-5.3,3.2-6c2.6-0.8,6.7-2,7.5,0.6c0.8,2.6-2.1,7.9-4.7,8.7
		C150.2,65.6,147.5,64.2,146.7,61.6z"/>
	<path class="st1" d="M133.7,37.3c-1.1-3.5,2.8-5.6,6.3-6.6c3.5-1.1,7.2,0.9,8.3,4.4c1.1,3.5,0.3,6.4-3.2,7.5
		C141.6,43.7,134.7,40.8,133.7,37.3z"/>
	<path class="st2" d="M114,19.7c-1.2-3.8,3.1-9.6,7-10.8c3.8-1.2,5.8,2.7,6.9,6.5c1.2,3.8-4.3,9.3-8.2,10.5
		C115.9,27.1,115.2,23.5,114,19.7z"/>
	<path class="st3" d="M85.8,8.3c-1.3-4.2,1.3-6.4,5.4-7.7c4.2-1.3,9.7-0.8,10.9,3.4c1.3,4.2-2.2,10.4-6.3,11.7
		C91.6,17,87.1,12.5,85.8,8.3z"/>
	<path class="st4" d="M55.9,15.9c-1.5-4.8-2.4-8.6,2.4-10c4.8-1.5,13.4-3.3,14.8,1.5c1.5,4.8-1.1,13.1-5.9,14.5
		C62.4,23.4,57.4,20.7,55.9,15.9z"/>
	<path class="st5" d="M24.5,37.4c-1.8-5.8-2-13.6,3.8-15.4c5.8-1.8,15.3,3.3,17.1,9c1.8,5.8,1.4,7.8-4.4,9.5
		C35.2,42.4,26.3,43.2,24.5,37.4z"/>
	<path class="st6" d="M0.5,68.8c-2.4-8,4.6-12,12.6-14.4c8-2.4,18.7,4.6,21.1,12.6c2.4,8-2.8,10.9-10.8,13.3
		C15.4,82.6,2.9,76.8,0.5,68.8z"/>
	<path class="st7" d="M6.8,117c-2.7-9-0.2-20.1,8.7-22.9c9-2.7,17,4.9,19.8,13.9c2.7,9,5.6,15.2-3.4,17.9C23,128.7,9.6,126,6.8,117z
		"/>
	<path class="st8" d="M34.2,157.3c-3.1-10.2-1.5-21.7,8.8-24.8c10.2-3.1,25.2,3.3,28.3,13.5c4.5,14.7-0.3,20.3-12.9,24.2
		C48.2,173.2,37.4,167.5,34.2,157.3z"/>
	<path class="st9" d="M89.5,177.6c-3.7-12.2,4.7-29.7,16.9-33.4c12.2-3.7,24.1,4.7,27.8,16.9c3.7,12.2,0.4,22.8-11.7,26.5
		C110.3,191.2,93.2,189.7,89.5,177.6z"/>
</g>
<g>
	<path class="st10" d="M62.5,119.8c0.7,2.4,0.4,3.8-1.1,4.3c-2.3,0.7-2.8,0.2-4.2-4.6l-4.4-14.7c-0.8-2.5-0.6-3.9,1.1-4.4
		c2.5-0.8,2.8,0.4,4.2,4.8L62.5,119.8z"/>
	<path class="st10" d="M103.8,108.3c0.2,0.5,0.1,2.1-1,2.4c-1.2,0.4-1.9,0-2.4-1.4l-2.7-8.8c-1.9-6.4-5.2-9.4-9.8-8
		c-6.2,1.9-3.8,10.2-3.3,11.8l2.7,8.9c0.2,0.5,0.1,2.2-0.9,2.5c-1,0.3-1.9-0.1-2.4-1.5l-2.9-9.4c-1.9-6.3-5.1-8.9-9.5-7.5
		c-4.1,1.3-5.4,5.4-3.4,11.8l2.8,9.1c0.2,0.5,0.1,2.2-1,2.4c-1.1,0.2-1.5,0.2-2.1-0.9c-0.3-0.5-1.2-3.1-2.6-7.8l-2.3-7.6
		c-1.4-4.5-1.2-5.4,0.7-6c0.6-0.2,0.4,0,2.8-0.5c-0.6,0.2,1.5-0.2,1.7-0.3c0.9-0.3,2.1-0.9,3.6-1.8c1.3-0.7,2.2-1.2,2.7-1.4l1-0.3
		c0.6-0.2,1.3-0.3,2-0.2l2.7,0.3c1.1,0.1,2,0.1,3-0.2c1.2-0.4,2-0.7,2.4-1.1l2-1.9c0.9-0.8,2.3-1.5,3.3-1.8c4.3-1.3,6.9,0.1,8.3,4.6
		L103.8,108.3z"/>
	<path class="st10" d="M106,104.3c-1.3-4.2,1.8-7.8,6.4-9.8c4.7-2.1,6.8-4.9,6.1-7c-0.9-3.1-3.9-4.7-6.6-3.9l-0.8,0.3
		c-3,0.9-3.4,4.4-5.7,5.1c-0.6,0.2-1.2,0.5-1.5-0.3c-0.6-2.1,3.1-4.7,6.8-5.8c11-3.3,11.4,1,14.4,11l2.3,7.5c0.4,1.3,0,2.3-1.2,2.6
		c-1,0.3-3.1,0.2-4.8,0.7c-3.1,0.9-3.5,2.6-6.8,3.6C110.9,109.4,107.1,108.1,106,104.3z M116.3,105.6c3.9-1.2,6.4-5.1,5.2-8.8
		c-0.7-2.4-3.2-3.8-6-2.9c-3.4,1-6.7,5.2-5.7,8.5C110.8,105,113.7,106.4,116.3,105.6z"/>
	<path class="st10" d="M141.1,75.5c0.8-0.3,0.6-0.6,3.3-1.4c2.1-0.6,2.9,0.1,3.4,1.8l6.6,21.7c1.5,4.9-0.5,8.3-8.8,10.8
		c-7,2.1-9.8,0.1-10-0.7c-0.3-1.1,0.1-1.6,0.9-1.9c2.1-0.6,5.6,2.7,9.2,1.6c3.9-1.2,6.2-4.7,5.2-8c-0.9-3-2.9-4.1-5.9-3.2
		c0,0-0.8,0.3-2.2,0.9c1-0.3-1.8,1-2.7,1.2c-4.4,1-9.1-0.5-11.3-8c-2-6.6,0.4-12.5,4.9-13.9c1.1-0.3,2.3-0.3,4.1-0.5
		C139.3,75.8,140.4,75.7,141.1,75.5z M142.1,95.8c4.1-1.3,6.2-5.7,4.7-10.5c-1.7-5.5-5.7-9.2-10.2-7.9c-4,1.2-6.3,5.4-4.6,10.8
		C133.9,94.3,137.8,97.1,142.1,95.8z"/>
	<path class="st10" d="M162.9,89.4c0.7,2.4,0.4,3.8-1.1,4.3c-2.3,0.7-2.8,0.2-4.2-4.6l-4.4-14.7c-0.8-2.5-0.6-3.9,1.1-4.4
		c2.5-0.8,2.8,0.4,4.2,4.8L162.9,89.4z"/>
	<path class="st10" d="M183.5,68.7l4.2,14c0.6,2.1-0.2,2.6-1,2.8c-1,0.3-1.8,0.1-2.2-1.4l-3-9.5c-2.3-7.8-6.1-8.4-9.2-7.5
		c-4,1.2-5.4,5.5-3.9,10.6l3.1,10.3c0.2,0.8,0.2,2-1.2,2.4c-1.1,0.3-1.7,0-2.2-1.7l-5.5-18.2c-0.4-1.3,0.2-2.2,1.4-2.6
		c1.7-0.5,3.6-0.7,5.7-1.3c1.3-0.4,2.7-2,5.8-3C180.6,62.1,182.5,65.3,183.5,68.7z"/>
	<path class="st10" d="M208.6,66l-6.5,1.9c-6.4,1.9-8.3,3.8-7.3,7.3c0.9,3.1,5.3,5.1,8.8,4c1.7-0.5,2.8-1.1,3.4-1.8l2.2-2.6
		c0.4-0.5,0.4-0.9,1.4-1.2c2.8-0.8,1.4,5.3-6.7,7.8c-6.8,2.1-12.8-1.2-15-8.4c-2.3-7.6,0.1-13.8,7.5-16.1c8.9-2.7,13,3.9,13.9,6.6
		C210.7,64.7,210.3,65.5,208.6,66z M199.2,68.1l1.8-0.5c2.5-0.8,4.3-3.3,3.7-5.4c-0.8-2.6-3.6-4.4-7.3-3.3c-3.9,1.2-5.7,4-4.9,6.7
		C193.2,68,196.1,69,199.2,68.1z"/>
</g>
</svg>
