<?xml version="1.0" encoding="utf-8"?>
<!-- Generator: Adobe Illustrator 26.3.1, SVG Export Plug-In . SVG Version: 6.00 Build 0)  -->
<svg version="1.1" xmlns="http://www.w3.org/2000/svg" xmlns:xlink="http://www.w3.org/1999/xlink" x="0px" y="0px"
	 viewBox="0 0 311.8 311.8" style="enable-background:new 0 0 311.8 311.8;" xml:space="preserve">
<style type="text/css">
	.st0{fill:#FFFFFF;}
	.st1{fill:#173C67;}
	.st2{clip-path:url(#SVGID_00000068635126063133017320000008620150161823574160_);fill:#FFFFFF;}
	.st3{clip-path:url(#SVGID_00000068635126063133017320000008620150161823574160_);fill:#173C67;}
	.st4{clip-path:url(#SVGID_00000018214106705750438770000017339467385353833091_);fill:#173C67;}
	.st5{clip-path:url(#SVGID_00000018214106705750438770000017339467385353833091_);fill:#FFFFFF;}
	.st6{clip-path:url(#SVGID_00000082335857596139668720000009728640574763789485_);fill:#FFFFFF;}
	.st7{clip-path:url(#SVGID_00000082335857596139668720000009728640574763789485_);fill:#173C67;}
	.st8{clip-path:url(#SVGID_00000029030982752090120510000017831958557405809852_);fill:#173C67;}
	.st9{clip-path:url(#SVGID_00000029030982752090120510000017831958557405809852_);fill:#FFFFFF;}
	.st10{clip-path:url(#SVGID_00000044866902807954996500000007604604372408528281_);fill:#FFFFFF;}
	.st11{clip-path:url(#SVGID_00000044866902807954996500000007604604372408528281_);fill:#173C67;}
	.st12{clip-path:url(#SVGID_00000178201438280719682470000002407581853508129961_);fill:#173C67;}
	.st13{clip-path:url(#SVGID_00000178201438280719682470000002407581853508129961_);fill:#FFFFFF;}
</style>
<g id="Calque_2">
</g>
<g id="Calque_1">
	<g>
		<defs>
			<rect id="SVGID_00000101071494468150518240000004086558560814762937_" x="14" y="28.5" width="283.9" height="254.7"/>
		</defs>
		<clipPath id="SVGID_00000090274060649139381540000013265958962008496014_">
			<use xlink:href="#SVGID_00000101071494468150518240000004086558560814762937_"  style="overflow:visible;"/>
		</clipPath>
		<path style="clip-path:url(#SVGID_00000090274060649139381540000013265958962008496014_);fill:#173C67;" d="M109.9,28.6
			C95.5,28.8,82,31.5,70.1,36c-12.2,4.6-22.9,11.3-31.6,19.5c-8.9,8.4-15.8,18.6-19.9,30c-4.3,11.7-5.7,24.7-3.7,38.5
			c2.1,14.1,7.6,27.6,15.8,39.9c8.4,12.5,19.5,23.6,32.6,32.7c13.2,9.2,28.2,16.2,44.2,20.6c15.9,4.3,32.6,5.9,49.2,4.3c0,0,0,0,0,0
			h0c0,0,0,0,0,0h0c16.4-1.6,30.9-6.3,43.2-13.2c12-6.8,21.8-15.6,28.9-26c7-10.1,11.4-21.5,12.9-33.6c1.5-11.9,0.3-24.4-3.9-37.1
			c-4.1-12.5-10.8-24-19.3-34.2c-8.4-10.1-18.5-18.9-29.9-26.2c-11.3-7.3-23.9-13-37.1-16.9C138.3,30.3,124.2,28.3,109.9,28.6"/>
		<path style="clip-path:url(#SVGID_00000090274060649139381540000013265958962008496014_);fill:#FFFFFF;" d="M75.2,104.4L63.1,105
			c-0.4,0-0.8,0.1-1.1,0.2c-0.3,0.1-0.6,0.3-0.7,0.5c-0.2,0.2-0.3,0.5-0.4,0.7c-0.1,0.3-0.1,0.6,0,1l2.6,13.8c0.1,0.4,0.2,0.7,0.4,1
			c0.2,0.3,0.4,0.5,0.7,0.7c0.3,0.2,0.6,0.3,0.9,0.4c0.3,0.1,0.7,0.1,1.1,0.1l12.5-0.7c0.4,0,0.7-0.1,1-0.2c0.3-0.1,0.5-0.2,0.6-0.4
			c0.2-0.2,0.3-0.4,0.3-0.6c0.1-0.2,0-0.5,0-0.8l0-0.2c-0.1-0.3-0.1-0.5-0.3-0.7c-0.1-0.2-0.3-0.4-0.5-0.5c-0.2-0.1-0.5-0.2-0.8-0.3
			c-0.3-0.1-0.7-0.1-1-0.1l-10,0.6l-0.8-4l7.2-0.4c0.4,0,0.7-0.1,1-0.2c0.3-0.1,0.5-0.2,0.6-0.4c0.2-0.2,0.3-0.3,0.3-0.6
			c0.1-0.2,0-0.5,0-0.7l0-0.1c-0.1-0.3-0.1-0.5-0.3-0.7c-0.1-0.2-0.3-0.4-0.5-0.5c-0.2-0.1-0.5-0.2-0.8-0.3
			c-0.3-0.1-0.7-0.1-1.1-0.1l-7.2,0.4l-0.7-3.6l9.7-0.5c0.4,0,0.7-0.1,1-0.2c0.3-0.1,0.5-0.2,0.6-0.4c0.2-0.2,0.3-0.3,0.3-0.6
			c0.1-0.2,0-0.5,0-0.8l0-0.1c-0.1-0.3-0.1-0.5-0.3-0.7c-0.1-0.2-0.3-0.4-0.5-0.5c-0.2-0.1-0.5-0.2-0.8-0.3
			C76,104.4,75.6,104.4,75.2,104.4"/>
		<path style="clip-path:url(#SVGID_00000090274060649139381540000013265958962008496014_);fill:#FFFFFF;" d="M99.2,103.1l-0.6,0
			c-0.3,0-0.6,0.1-0.9,0.2c-0.2,0.1-0.4,0.2-0.6,0.4c-0.1,0.2-0.2,0.4-0.3,0.6c0,0.2,0,0.5,0,0.8l1.9,8.6c0.2,0.7,0.2,1.4,0.2,2
			c-0.1,0.6-0.2,1-0.5,1.4c-0.3,0.4-0.7,0.7-1.2,0.9c-0.5,0.2-1.1,0.3-1.9,0.4c-0.7,0-1.4,0-2-0.2c-0.6-0.2-1.1-0.4-1.6-0.8
			c-0.4-0.4-0.8-0.8-1.1-1.3c-0.3-0.5-0.5-1.2-0.7-1.9l-1.8-8.7c-0.1-0.3-0.2-0.6-0.3-0.8c-0.1-0.2-0.3-0.4-0.5-0.6
			c-0.2-0.1-0.5-0.2-0.7-0.3c-0.3-0.1-0.6-0.1-0.9-0.1l-0.6,0c-0.3,0-0.6,0.1-0.9,0.2c-0.2,0.1-0.4,0.2-0.6,0.4
			c-0.2,0.2-0.3,0.4-0.3,0.6c-0.1,0.2,0,0.5,0,0.8l1.8,8.8c0.3,1.3,0.7,2.5,1.3,3.5c0.6,1,1.4,1.8,2.3,2.4c0.9,0.6,2,1.1,3.2,1.4
			c1.2,0.3,2.6,0.4,4.2,0.3c1.5-0.1,2.8-0.3,3.9-0.7c1.1-0.4,1.9-1,2.6-1.7c0.6-0.7,1-1.6,1.2-2.6c0.2-1,0.1-2.2-0.2-3.5l-1.9-8.6
			c-0.1-0.3-0.2-0.6-0.3-0.8c-0.1-0.2-0.3-0.4-0.5-0.6c-0.2-0.1-0.4-0.2-0.7-0.3C99.9,103.1,99.6,103.1,99.2,103.1"/>
		<path style="clip-path:url(#SVGID_00000090274060649139381540000013265958962008496014_);fill:#FFFFFF;" d="M114.1,111.1l-1.2-5.4
			l3.6-0.2c0.6,0,1.2,0,1.7,0.1c0.5,0.1,1,0.2,1.3,0.5c0.4,0.2,0.7,0.5,0.9,0.8c0.2,0.3,0.4,0.7,0.5,1.1c0.1,0.4,0.1,0.8,0,1.1
			c-0.1,0.3-0.2,0.6-0.5,0.9c-0.3,0.2-0.6,0.5-1.1,0.6c-0.5,0.1-1,0.2-1.6,0.3L114.1,111.1z M116.1,102.4l-6.2,0.3
			c-0.4,0-0.7,0.1-1,0.2c-0.3,0.1-0.5,0.3-0.7,0.5c-0.2,0.2-0.3,0.4-0.3,0.7c0,0.3,0,0.6,0,1l3.1,13.6c0.1,0.4,0.2,0.7,0.4,1
			c0.2,0.3,0.3,0.5,0.6,0.7c0.2,0.2,0.5,0.3,0.7,0.4c0.3,0.1,0.6,0.1,0.9,0.1l0.7,0c0.3,0,0.6-0.1,0.9-0.2c0.2-0.1,0.4-0.2,0.6-0.4
			c0.1-0.2,0.2-0.4,0.3-0.6c0-0.2,0-0.5,0-0.8l-1.1-4.7l1.8-0.1l5.6,4.6c0.3,0.3,0.6,0.5,0.9,0.7c0.3,0.2,0.6,0.4,0.8,0.5
			c0.3,0.1,0.6,0.2,0.9,0.3c0.3,0,0.6,0.1,1,0c0.5,0,0.9-0.1,1.3-0.3c0.3-0.1,0.6-0.3,0.8-0.5c0.2-0.2,0.3-0.4,0.4-0.5
			c0.1-0.2,0-0.3,0-0.3l-6.8-5.4c0.9-0.2,1.6-0.4,2.2-0.8c0.6-0.3,1.1-0.7,1.4-1.2c0.3-0.5,0.6-1,0.7-1.6c0.1-0.6,0.1-1.3-0.1-2
			c-0.2-0.9-0.6-1.7-1.1-2.4c-0.5-0.7-1.2-1.2-2-1.7c-0.8-0.4-1.7-0.7-2.8-0.9C118.7,102.4,117.4,102.3,116.1,102.4"/>
		<path style="clip-path:url(#SVGID_00000090274060649139381540000013265958962008496014_);fill:#FFFFFF;" d="M143.2,115.7
			c-0.9,0.1-1.7-0.1-2.6-0.3c-0.8-0.2-1.5-0.6-2.2-1.1c-0.7-0.5-1.2-1.1-1.7-1.7c-0.5-0.7-0.8-1.4-1-2.3c-0.2-0.9-0.3-1.6-0.1-2.3
			c0.1-0.7,0.4-1.3,0.8-1.8c0.4-0.5,0.9-0.9,1.6-1.2c0.7-0.3,1.4-0.5,2.3-0.5c0.9,0,1.7,0.1,2.5,0.3c0.8,0.2,1.5,0.6,2.2,1.1
			c0.7,0.5,1.2,1,1.7,1.7c0.5,0.7,0.8,1.4,1,2.3c0.2,0.8,0.3,1.6,0.2,2.3c-0.1,0.7-0.4,1.3-0.8,1.9c-0.4,0.5-0.9,0.9-1.6,1.3
			C144.8,115.5,144,115.6,143.2,115.7 M139.4,100.9c-1.5,0.1-2.9,0.4-4.1,0.9c-1.2,0.5-2.2,1.2-2.9,2.1c-0.8,0.9-1.3,1.9-1.5,3
			c-0.2,1.1-0.2,2.4,0.1,3.8c0.3,1.4,0.9,2.6,1.7,3.7c0.8,1.1,1.8,2.1,2.9,2.8c1.2,0.8,2.5,1.4,3.9,1.7c1.4,0.4,2.9,0.5,4.5,0.4
			c1.6-0.1,3-0.4,4.1-0.9c1.2-0.5,2.2-1.2,2.9-2.1c0.7-0.9,1.2-1.9,1.4-3.1c0.2-1.2,0.2-2.4-0.2-3.8c-0.4-1.3-0.9-2.6-1.7-3.7
			c-0.8-1.1-1.8-2-2.9-2.8c-1.1-0.8-2.4-1.3-3.8-1.7C142.5,101,141,100.8,139.4,100.9"/>
		<path style="clip-path:url(#SVGID_00000090274060649139381540000013265958962008496014_);fill:#FFFFFF;" d="M162.2,109l-1.5-5.7
			l3-0.2c0.6,0,1.2,0,1.7,0.1c0.5,0.1,1,0.3,1.4,0.5c0.4,0.2,0.7,0.5,1,0.8c0.3,0.3,0.5,0.7,0.6,1.2c0.1,0.5,0.2,0.9,0.1,1.2
			c-0.1,0.4-0.2,0.7-0.5,0.9c-0.3,0.3-0.6,0.5-1.1,0.6c-0.5,0.2-1,0.2-1.6,0.3L162.2,109z M162.9,100.1l-5.2,0.3
			c-0.4,0-0.7,0.1-1,0.2c-0.3,0.1-0.5,0.3-0.6,0.5c-0.2,0.2-0.3,0.4-0.3,0.7c0,0.3,0,0.6,0.1,0.9l3.6,13.7c0.1,0.3,0.2,0.6,0.3,0.8
			c0.1,0.2,0.3,0.4,0.5,0.6c0.2,0.1,0.4,0.3,0.7,0.3c0.3,0.1,0.6,0.1,0.9,0.1l0.7,0c0.3,0,0.6-0.1,0.8-0.2c0.2-0.1,0.4-0.2,0.5-0.4
			c0.1-0.2,0.2-0.4,0.2-0.6c0-0.2,0-0.5-0.1-0.8l-1.1-4l3.1-0.2c1.4-0.1,2.5-0.3,3.5-0.6c1-0.3,1.7-0.7,2.3-1.3
			c0.6-0.5,0.9-1.2,1.1-1.9c0.1-0.8,0.1-1.6-0.2-2.6c-0.3-1-0.7-1.8-1.3-2.5c-0.6-0.7-1.3-1.3-2.1-1.8c-0.8-0.5-1.8-0.8-2.9-1
			C165.5,100.1,164.2,100,162.9,100.1"/>
		<path style="clip-path:url(#SVGID_00000090274060649139381540000013265958962008496014_);fill:#FFFFFF;" d="M183,109.2l0.9-6.5
			l4.5,6.2L183,109.2z M182.9,98.9c-0.5,0-0.9,0.1-1.3,0.1c-0.3,0.1-0.6,0.2-0.8,0.3c-0.2,0.1-0.3,0.2-0.4,0.4
			c-0.1,0.2-0.1,0.3-0.1,0.5l-2.5,15.8c0,0.1,0.1,0.2,0.2,0.3c0.2,0.1,0.4,0.3,0.6,0.4c0.3,0.1,0.6,0.2,0.9,0.3
			c0.3,0.1,0.7,0.1,1,0.1c0.2,0,0.5-0.1,0.7-0.1c0.2-0.1,0.4-0.2,0.6-0.4c0.2-0.2,0.3-0.4,0.5-0.6c0.1-0.2,0.2-0.5,0.2-0.9l0.4-2.9
			l7.3-0.4l2,2.7c0.3,0.3,0.5,0.6,0.8,0.9c0.3,0.2,0.5,0.4,0.8,0.6c0.3,0.1,0.5,0.2,0.8,0.3c0.3,0.1,0.5,0.1,0.8,0.1
			c0.3,0,0.7-0.1,0.9-0.2c0.3-0.1,0.5-0.2,0.7-0.4c0.2-0.1,0.3-0.3,0.4-0.4c0.1-0.1,0.1-0.3,0-0.3l-11.4-14.9
			c-0.1-0.2-0.3-0.3-0.4-0.5c-0.2-0.1-0.4-0.3-0.6-0.3c-0.2-0.1-0.5-0.2-0.9-0.2C183.9,98.9,183.4,98.9,182.9,98.9"/>
		<path style="clip-path:url(#SVGID_00000090274060649139381540000013265958962008496014_);fill:#FFFFFF;" d="M71.5,133.1
			c-1.6,0.1-3.1,0.4-4.4,1c-1.3,0.6-2.3,1.3-3.2,2.3c-0.8,0.9-1.4,2.1-1.7,3.3c-0.3,1.2-0.4,2.6-0.1,4.1c0.3,1.5,0.8,2.8,1.6,4
			c0.8,1.2,1.7,2.2,2.9,3c1.2,0.8,2.5,1.4,3.9,1.8c1.5,0.4,3,0.5,4.7,0.4c1.5-0.1,2.7-0.4,3.8-0.8c1.1-0.4,1.9-0.9,2.6-1.4
			c0.7-0.5,1.1-1.1,1.4-1.6c0.3-0.5,0.4-0.9,0.3-1.3c0-0.2-0.1-0.4-0.3-0.6c-0.1-0.1-0.3-0.3-0.5-0.4c-0.2-0.1-0.4-0.1-0.5-0.2
			c-0.2,0-0.3,0-0.4,0c0,0,0,0,0,0c0,0,0,0,0,0c0,0,0,0,0,0c0,0,0,0,0,0c-0.1,0.6-0.4,1.2-0.8,1.7c-0.4,0.5-0.9,0.9-1.4,1.3
			c-0.6,0.4-1.2,0.7-2,0.9c-0.7,0.2-1.5,0.4-2.4,0.4c-1.3,0.1-2.5-0.1-3.7-0.4c-1.1-0.3-2.2-0.9-3.1-1.5c-0.9-0.7-1.7-1.5-2.3-2.5
			c-0.6-1-1.1-2.1-1.3-3.3c-0.2-1.2-0.2-2.3,0-3.4c0.2-1,0.7-1.9,1.3-2.7c0.6-0.8,1.5-1.4,2.4-1.8c1-0.5,2.1-0.7,3.4-0.8
			c0.7,0,1.4,0,2.1,0.1c0.7,0.1,1.4,0.3,2.1,0.5c0.7,0.2,1.3,0.5,1.9,0.9c0.6,0.4,1.1,0.8,1.6,1.3c0,0,0,0,0,0c0,0,0,0,0,0h0h0
			c0.1,0,0.2,0,0.3-0.1c0.1-0.1,0.3-0.1,0.4-0.2c0.1-0.1,0.2-0.2,0.3-0.4c0.1-0.2,0.1-0.4,0.1-0.6c-0.1-0.3-0.3-0.6-0.8-1
			c-0.4-0.4-1.1-0.8-1.8-1.1c-0.8-0.4-1.7-0.7-2.8-0.9C74,133.1,72.8,133,71.5,133.1"/>
		<path style="clip-path:url(#SVGID_00000090274060649139381540000013265958962008496014_);fill:#FFFFFF;" d="M88.1,132.3l-0.3,0
			c-0.2,0-0.3,0-0.4,0.1c-0.1,0-0.2,0.1-0.3,0.2c-0.1,0.1-0.1,0.2-0.1,0.3c0,0.1,0,0.2,0,0.4l3.6,17.5c0,0.2,0.1,0.3,0.1,0.4
			c0.1,0.1,0.1,0.2,0.2,0.3c0.1,0.1,0.2,0.1,0.3,0.2c0.1,0,0.3,0,0.4,0l0.3,0c0.2,0,0.3,0,0.5-0.1c0.1,0,0.2-0.1,0.3-0.2
			c0.1-0.1,0.1-0.2,0.1-0.3c0-0.1,0-0.3,0-0.4l-3.6-17.5c0-0.1-0.1-0.3-0.1-0.4c-0.1-0.1-0.1-0.2-0.2-0.3c-0.1-0.1-0.2-0.1-0.4-0.2
			C88.4,132.3,88.3,132.3,88.1,132.3"/>
		<path style="clip-path:url(#SVGID_00000090274060649139381540000013265958962008496014_);fill:#FFFFFF;" d="M113.7,130.8l-0.3,0
			c-0.2,0-0.3,0-0.4,0.1c-0.1,0-0.2,0.1-0.3,0.2c-0.1,0.1-0.1,0.2-0.1,0.3c0,0.1,0,0.2,0,0.4l3.4,15L101,132.6
			c-0.2-0.2-0.3-0.3-0.5-0.4c-0.2-0.1-0.3-0.2-0.4-0.3c-0.2-0.1-0.3-0.1-0.5-0.2c-0.2,0-0.4-0.1-0.6,0l-0.6,0
			c-0.2,0-0.4,0.1-0.5,0.1c-0.1,0.1-0.2,0.2-0.3,0.3c-0.1,0.1-0.1,0.3-0.2,0.4c0,0.2,0,0.3,0,0.5l3.6,17c0,0.2,0.1,0.3,0.1,0.4
			c0.1,0.1,0.1,0.2,0.2,0.3c0.1,0.1,0.2,0.1,0.3,0.2c0.1,0,0.3,0,0.4,0l0.3,0c0.2,0,0.3,0,0.4-0.1c0.1,0,0.2-0.1,0.3-0.2
			c0.1-0.1,0.1-0.2,0.1-0.3c0-0.1,0-0.3,0-0.4l-3.4-15.7l16.1,15c0.1,0.1,0.3,0.2,0.4,0.3c0.1,0.1,0.2,0.2,0.3,0.2
			c0.1,0.1,0.2,0.1,0.4,0.1c0.2,0,0.3,0,0.5,0l0.2,0c0.2,0,0.3-0.1,0.5-0.1c0.1-0.1,0.2-0.2,0.3-0.3c0.1-0.1,0.1-0.3,0.1-0.4
			c0-0.2,0-0.4,0-0.6l-3.8-16.8c0-0.2-0.1-0.3-0.1-0.4c-0.1-0.1-0.1-0.2-0.2-0.3c-0.1-0.1-0.2-0.1-0.3-0.1
			C114,130.8,113.9,130.8,113.7,130.8"/>
		<path style="clip-path:url(#SVGID_00000090274060649139381540000013265958962008496014_);fill:#FFFFFF;" d="M136.2,129.5
			l-12.7,0.8c-0.2,0-0.3,0.1-0.5,0.1c-0.1,0.1-0.3,0.2-0.4,0.3c-0.1,0.1-0.2,0.2-0.2,0.4c0,0.1,0,0.3,0,0.4l3.9,16.6
			c0,0.2,0.1,0.3,0.2,0.4c0.1,0.1,0.2,0.2,0.4,0.3c0.1,0.1,0.3,0.2,0.5,0.2c0.2,0,0.3,0.1,0.5,0.1l13.1-0.9c0.2,0,0.3,0,0.4-0.1
			c0.1,0,0.2-0.1,0.3-0.2c0.1-0.1,0.1-0.2,0.1-0.3c0-0.1,0-0.2,0-0.4l0-0.2c0-0.1-0.1-0.2-0.2-0.3c-0.1-0.1-0.2-0.2-0.3-0.2
			c-0.1-0.1-0.2-0.1-0.4-0.1c-0.1,0-0.3,0-0.4,0l-12.1,0.8l-1.6-7l9.5-0.6c0.2,0,0.3,0,0.4-0.1c0.1,0,0.2-0.1,0.3-0.2
			c0.1-0.1,0.1-0.2,0.1-0.3c0-0.1,0-0.2,0-0.4l0-0.1c0-0.1-0.1-0.2-0.2-0.3c-0.1-0.1-0.2-0.2-0.3-0.2c-0.1-0.1-0.2-0.1-0.4-0.1
			c-0.1,0-0.3,0-0.4,0l-9.5,0.6l-1.5-6.4l11.7-0.7c0.2,0,0.3,0,0.4-0.1c0.1,0,0.2-0.1,0.3-0.2c0.1-0.1,0.1-0.2,0.1-0.3
			c0-0.1,0-0.2,0-0.4l0-0.2c0-0.1-0.1-0.2-0.2-0.3c-0.1-0.1-0.2-0.2-0.3-0.2c-0.1-0.1-0.2-0.1-0.3-0.1
			C136.5,129.5,136.3,129.5,136.2,129.5"/>
		<path style="clip-path:url(#SVGID_00000090274060649139381540000013265958962008496014_);fill:#FFFFFF;" d="M160.8,127.9l-0.5,0
			c-0.3,0-0.5,0.1-0.7,0.1c-0.2,0.1-0.3,0.2-0.4,0.3c-0.1,0.1-0.2,0.3-0.2,0.5c-0.1,0.2-0.1,0.4-0.2,0.7l-2.7,11.1l-8.3-10.4
			c-0.2-0.2-0.3-0.4-0.5-0.6c-0.2-0.2-0.3-0.3-0.5-0.4c-0.2-0.1-0.3-0.2-0.6-0.2c-0.2,0-0.4-0.1-0.7,0l-0.5,0
			c-0.2,0-0.5,0.1-0.6,0.1c-0.2,0.1-0.3,0.2-0.4,0.3c-0.1,0.1-0.2,0.3-0.2,0.4c0,0.2,0,0.3,0,0.5l4.2,16.7c0,0.2,0.1,0.3,0.1,0.4
			c0.1,0.1,0.1,0.2,0.2,0.3c0.1,0.1,0.2,0.1,0.3,0.1c0.1,0,0.3,0,0.4,0l0.3,0c0.2,0,0.3,0,0.4-0.1c0.1,0,0.2-0.1,0.2-0.2
			c0.1-0.1,0.1-0.2,0.1-0.3c0-0.1,0-0.3-0.1-0.4l-4-15.7l8.2,10.2c0.2,0.2,0.3,0.4,0.4,0.5c0.1,0.1,0.3,0.3,0.5,0.4
			c0.2,0.1,0.4,0.2,0.6,0.2c0.2,0,0.5,0.1,0.7,0c0.3,0,0.5-0.1,0.7-0.1c0.2-0.1,0.3-0.2,0.5-0.3c0.1-0.1,0.2-0.3,0.3-0.4
			c0.1-0.2,0.1-0.3,0.2-0.5l2.7-10.9l4.1,15.6c0,0.2,0.1,0.3,0.2,0.4c0.1,0.1,0.2,0.2,0.2,0.3c0.1,0.1,0.2,0.1,0.3,0.1
			c0.1,0,0.3,0,0.4,0l0.3,0c0.2,0,0.3,0,0.4-0.1c0.1,0,0.2-0.1,0.2-0.2c0.1-0.1,0.1-0.2,0.1-0.3c0-0.1,0-0.2,0-0.4l-4.4-16.6
			c0-0.2-0.1-0.3-0.2-0.5c-0.1-0.1-0.3-0.3-0.4-0.4c-0.2-0.1-0.4-0.2-0.6-0.2C161.3,127.9,161,127.9,160.8,127.9"/>
		<path style="clip-path:url(#SVGID_00000090274060649139381540000013265958962008496014_);fill:#FFFFFF;" d="M176,137.9l1.4-8.9
			l6.1,8.4L176,137.9z M176.8,126.9c-0.3,0-0.5,0-0.6,0.1c-0.2,0-0.3,0.1-0.4,0.2c-0.1,0.1-0.2,0.1-0.2,0.2
			c-0.1,0.1-0.1,0.2-0.1,0.3l-2.8,17.9c0,0,0,0.1,0.1,0.1c0.1,0.1,0.2,0.1,0.3,0.2c0.1,0.1,0.3,0.1,0.5,0.1c0.2,0,0.3,0,0.5,0
			c0.1,0,0.2,0,0.3-0.1c0.1,0,0.2-0.1,0.3-0.2c0.1-0.1,0.2-0.2,0.2-0.3c0.1-0.1,0.1-0.3,0.1-0.5l0.8-5.4l8.9-0.6l3.7,5.1
			c0.1,0.2,0.2,0.3,0.4,0.4c0.1,0.1,0.3,0.2,0.4,0.2c0.1,0.1,0.3,0.1,0.4,0.1c0.1,0,0.3,0,0.4,0c0.2,0,0.3,0,0.5-0.1
			c0.1-0.1,0.3-0.1,0.4-0.2c0.1-0.1,0.2-0.1,0.2-0.2c0-0.1,0.1-0.1,0-0.2l-12.4-16.8c-0.1-0.1-0.2-0.2-0.3-0.3
			c-0.1-0.1-0.2-0.1-0.4-0.2c-0.1,0-0.3-0.1-0.5-0.1C177.3,126.9,177,126.9,176.8,126.9"/>
		<path style="clip-path:url(#SVGID_00000090274060649139381540000013265958962008496014_);fill:#173C67;" d="M197.3,125.5
			c-1,0.1-1.8,0.2-2.6,0.5c-0.7,0.3-1.4,0.7-1.8,1.2c-0.5,0.5-0.8,1-1,1.7c-0.2,0.6-0.1,1.3,0.1,2c0.3,0.9,0.7,1.6,1.2,2.2
			c0.5,0.6,1.1,1,1.8,1.4c0.7,0.3,1.5,0.6,2.2,0.8c0.8,0.2,1.6,0.3,2.4,0.4c0.8,0.1,1.5,0.2,2.2,0.4c0.7,0.1,1.4,0.3,2,0.6
			c0.6,0.2,1.1,0.5,1.5,0.9c0.4,0.4,0.7,0.9,0.9,1.5c0.2,0.5,0.2,1,0.1,1.5c-0.1,0.4-0.3,0.8-0.7,1.1c-0.3,0.3-0.8,0.6-1.4,0.8
			c-0.6,0.2-1.2,0.3-2,0.4c-0.8,0.1-1.5,0-2.2-0.1c-0.7-0.1-1.3-0.3-1.9-0.6c-0.6-0.2-1.1-0.5-1.6-0.9c-0.5-0.3-0.9-0.7-1.3-1.1l0,0
			c0,0,0,0,0,0h0h0c-0.1,0-0.1,0-0.3,0.1c-0.1,0.1-0.2,0.1-0.3,0.3c-0.1,0.1-0.2,0.2-0.3,0.4c-0.1,0.2-0.1,0.3,0,0.5
			c0.1,0.3,0.4,0.7,0.9,1.1c0.5,0.4,1.1,0.8,1.8,1.1c0.8,0.3,1.6,0.6,2.6,0.8c1,0.2,2.1,0.2,3.2,0.2c1.1-0.1,2-0.3,2.8-0.6
			c0.8-0.3,1.4-0.7,1.9-1.2c0.5-0.5,0.8-1.1,0.9-1.7c0.1-0.7,0.1-1.4-0.1-2.2c-0.3-0.9-0.7-1.6-1.2-2.2c-0.6-0.6-1.2-1-2-1.4
			c-0.7-0.4-1.6-0.6-2.4-0.8c-0.8-0.2-1.7-0.3-2.6-0.5c-0.8-0.1-1.6-0.2-2.2-0.3c-0.7-0.1-1.3-0.3-1.8-0.5c-0.5-0.2-1-0.5-1.3-0.9
			c-0.4-0.4-0.6-0.8-0.8-1.4c-0.1-0.5-0.2-0.9,0-1.3c0.1-0.4,0.3-0.8,0.7-1.1c0.3-0.3,0.8-0.6,1.3-0.8c0.5-0.2,1.2-0.3,1.9-0.4
			c0.6,0,1.2,0,1.8,0.1c0.6,0.1,1.1,0.3,1.7,0.5c0.5,0.2,1,0.5,1.5,0.8c0.4,0.3,0.8,0.6,1.2,1c0,0,0,0,0,0c0,0,0,0,0,0s0,0,0,0
			c0,0,0,0,0,0c0.1,0,0.2,0,0.3-0.1c0.1-0.1,0.2-0.1,0.3-0.2c0.1-0.1,0.2-0.2,0.3-0.4c0.1-0.1,0.1-0.3,0-0.5c-0.1-0.3-0.3-0.6-0.7-1
			c-0.4-0.3-0.9-0.7-1.6-0.9c-0.7-0.3-1.4-0.5-2.3-0.7C199.3,125.5,198.3,125.4,197.3,125.5"/>
		<path style="clip-path:url(#SVGID_00000090274060649139381540000013265958962008496014_);fill:#FFFFFF;" d="M91.1,162.4l-0.5,0
			c-0.2,0-0.4,0.1-0.6,0.1c-0.2,0.1-0.3,0.2-0.4,0.3c-0.1,0.1-0.2,0.3-0.2,0.5c0,0.2,0,0.4,0,0.7l3.4,17c0.1,0.3,0.2,0.5,0.3,0.7
			c0.1,0.2,0.3,0.4,0.5,0.5c0.2,0.1,0.4,0.2,0.7,0.3c0.3,0.1,0.5,0.1,0.8,0.1l11.5-0.9c0.3,0,0.5-0.1,0.7-0.2
			c0.2-0.1,0.4-0.2,0.5-0.3c0.1-0.1,0.2-0.3,0.2-0.5c0-0.2,0-0.4,0-0.6l0-0.1c0-0.2-0.1-0.4-0.2-0.6c-0.1-0.2-0.2-0.3-0.4-0.4
			c-0.2-0.1-0.4-0.2-0.6-0.2c-0.2,0-0.5-0.1-0.7,0l-9.8,0.8L93,163.7c-0.1-0.2-0.1-0.5-0.2-0.6c-0.1-0.2-0.2-0.3-0.4-0.4
			c-0.2-0.1-0.3-0.2-0.5-0.2C91.6,162.3,91.4,162.3,91.1,162.4"/>
		<path style="clip-path:url(#SVGID_00000090274060649139381540000013265958962008496014_);fill:#FFFFFF;" d="M117.9,172.1l1.7-8.6
			l5.4,8.1L117.9,172.1z M118.9,160.2c-0.4,0-0.7,0.1-1,0.1c-0.3,0.1-0.5,0.1-0.6,0.2c-0.2,0.1-0.3,0.2-0.4,0.3
			c-0.1,0.1-0.1,0.3-0.2,0.4l-3.9,18.9c0,0.1,0.1,0.2,0.2,0.3c0.1,0.1,0.3,0.2,0.5,0.3c0.2,0.1,0.4,0.2,0.7,0.2
			c0.3,0.1,0.5,0.1,0.8,0.1c0.2,0,0.4-0.1,0.6-0.1c0.2-0.1,0.3-0.2,0.5-0.3c0.1-0.1,0.3-0.3,0.4-0.5c0.1-0.2,0.2-0.4,0.2-0.7l1-4.8
			l8.9-0.7l3,4.4c0.2,0.3,0.4,0.5,0.6,0.7c0.2,0.2,0.4,0.3,0.6,0.4c0.2,0.1,0.4,0.2,0.6,0.2c0.2,0,0.4,0,0.6,0
			c0.3,0,0.5-0.1,0.7-0.2c0.2-0.1,0.4-0.2,0.6-0.3c0.2-0.1,0.3-0.2,0.3-0.4c0.1-0.1,0.1-0.2,0.1-0.3l-12.1-17.5
			c-0.1-0.2-0.2-0.3-0.3-0.4c-0.1-0.1-0.3-0.2-0.5-0.3c-0.2-0.1-0.4-0.1-0.7-0.1C119.7,160.2,119.3,160.2,118.9,160.2"/>
		<path style="clip-path:url(#SVGID_00000090274060649139381540000013265958962008496014_);fill:#FFFFFF;" d="M142,176.1l-1.5-6.4
			l5.6-0.4c0.8-0.1,1.5-0.1,2.1,0c0.6,0.1,1.2,0.2,1.6,0.5c0.4,0.2,0.8,0.5,1.1,0.9c0.3,0.4,0.5,0.8,0.6,1.3
			c0.1,0.6,0.2,1.1,0.1,1.5c-0.1,0.4-0.3,0.8-0.6,1.1c-0.3,0.3-0.8,0.5-1.3,0.7c-0.6,0.2-1.3,0.3-2.2,0.4L142,176.1z M139.9,167.5
			l-1.4-6l5.2-0.4c0.7-0.1,1.3,0,1.8,0c0.5,0.1,1,0.2,1.4,0.5c0.4,0.2,0.7,0.5,1,0.9c0.2,0.4,0.4,0.8,0.5,1.2c0.1,0.5,0.1,0.9,0,1.3
			c-0.1,0.4-0.3,0.7-0.5,1c-0.3,0.3-0.6,0.5-1.1,0.7c-0.5,0.2-1,0.3-1.6,0.3L139.9,167.5z M143.4,158.6l-7.1,0.5
			c-0.3,0-0.5,0.1-0.7,0.2c-0.2,0.1-0.4,0.2-0.5,0.4c-0.1,0.2-0.2,0.4-0.2,0.6c0,0.2,0,0.5,0,0.7l3.8,16.1c0.1,0.3,0.2,0.5,0.3,0.7
			c0.1,0.2,0.3,0.4,0.5,0.5c0.2,0.1,0.4,0.2,0.7,0.3c0.2,0.1,0.5,0.1,0.8,0.1l7.1-0.6c1.4-0.1,2.6-0.3,3.6-0.6
			c1-0.3,1.8-0.7,2.3-1.2c0.6-0.5,0.9-1.1,1.1-1.8c0.2-0.7,0.1-1.5-0.1-2.5c-0.1-0.6-0.4-1.1-0.7-1.6c-0.3-0.5-0.7-0.9-1.2-1.3
			c-0.5-0.4-1.1-0.7-1.7-1c-0.7-0.3-1.4-0.4-2.3-0.6c0.6-0.2,1.1-0.5,1.5-0.8c0.4-0.3,0.7-0.6,1-1c0.2-0.4,0.4-0.8,0.4-1.2
			c0.1-0.4,0-0.9-0.1-1.5c-0.2-0.8-0.5-1.5-1-2.1c-0.5-0.6-1.1-1.1-1.8-1.5c-0.7-0.4-1.5-0.6-2.5-0.8
			C145.7,158.6,144.6,158.5,143.4,158.6"/>
		<path style="clip-path:url(#SVGID_00000090274060649139381540000013265958962008496014_);fill:#FFFFFF;" d="M171.5,156.6
			l-12.3,0.9c-0.3,0-0.5,0.1-0.7,0.2c-0.2,0.1-0.4,0.2-0.5,0.4c-0.1,0.2-0.2,0.4-0.2,0.6c0,0.2,0,0.5,0,0.7l4.1,16
			c0.1,0.3,0.2,0.5,0.3,0.7c0.1,0.2,0.3,0.4,0.5,0.5c0.2,0.1,0.4,0.2,0.7,0.3c0.2,0.1,0.5,0.1,0.8,0.1l12.6-1c0.3,0,0.5-0.1,0.7-0.1
			c0.2-0.1,0.3-0.2,0.4-0.3c0.1-0.1,0.2-0.3,0.2-0.5c0-0.2,0-0.4-0.1-0.6l0-0.1c0-0.2-0.1-0.4-0.2-0.5c-0.1-0.2-0.2-0.3-0.4-0.4
			c-0.2-0.1-0.3-0.2-0.5-0.2c-0.2,0-0.4,0-0.7,0l-11,0.9l-1.5-5.9l8.3-0.6c0.3,0,0.5-0.1,0.7-0.1c0.2-0.1,0.3-0.2,0.4-0.3
			c0.1-0.1,0.2-0.3,0.2-0.4c0-0.2,0-0.3-0.1-0.6l0-0.1c-0.1-0.2-0.1-0.4-0.2-0.5c-0.1-0.1-0.2-0.3-0.4-0.4c-0.2-0.1-0.3-0.2-0.5-0.2
			c-0.2,0-0.5,0-0.7,0l-8.3,0.6l-1.4-5.4l10.7-0.8c0.3,0,0.5-0.1,0.7-0.1c0.2-0.1,0.3-0.2,0.4-0.3c0.1-0.1,0.2-0.3,0.2-0.4
			c0-0.2,0-0.3,0-0.6l0-0.2c-0.1-0.2-0.1-0.4-0.2-0.5c-0.1-0.2-0.2-0.3-0.4-0.4c-0.2-0.1-0.4-0.2-0.6-0.2
			C172,156.6,171.8,156.6,171.5,156.6"/>
		<path style="clip-path:url(#SVGID_00000090274060649139381540000013265958962008496014_);fill:#FFFFFF;" d="M180.9,155.8l-0.5,0
			c-0.2,0-0.4,0.1-0.6,0.1c-0.2,0.1-0.3,0.2-0.4,0.3c-0.1,0.1-0.1,0.3-0.1,0.4c0,0.2,0,0.4,0.1,0.6l4.4,16.3
			c0.1,0.3,0.2,0.5,0.3,0.7c0.1,0.2,0.3,0.4,0.5,0.5c0.2,0.1,0.4,0.2,0.7,0.3c0.2,0.1,0.5,0.1,0.8,0.1l10.7-0.9
			c0.3,0,0.5-0.1,0.6-0.1c0.2-0.1,0.3-0.2,0.4-0.3c0.1-0.1,0.2-0.3,0.2-0.4c0-0.2,0-0.4-0.1-0.6l0-0.1c-0.1-0.2-0.1-0.4-0.3-0.6
			c-0.1-0.2-0.3-0.3-0.4-0.4c-0.2-0.1-0.4-0.2-0.6-0.2c-0.2,0-0.4,0-0.7,0l-9.1,0.7l-4.2-15.2c-0.1-0.2-0.2-0.4-0.3-0.6
			c-0.1-0.2-0.2-0.3-0.4-0.4c-0.2-0.1-0.3-0.2-0.5-0.2C181.4,155.8,181.1,155.8,180.9,155.8"/>
		<path style="clip-path:url(#SVGID_00000090274060649139381540000013265958962008496014_);fill:#FFFFFF;" d="M111.2,43.7
			c-0.1,0-0.1,0-0.2,0c-0.1,0-0.1,0.1-0.2,0.1c0,0-0.1,0.1-0.1,0.2c0,0.1-0.1,0.1-0.1,0.2l-2,12.4c0,0.2-0.1,0.3-0.2,0.5
			s-0.2,0.3-0.3,0.4c-0.1,0.1-0.3,0.3-0.5,0.4c-0.2,0.1-0.3,0.2-0.5,0.2l-17.9,5.1c-0.2,0.1-0.3,0.1-0.4,0.2
			c-0.1,0.1-0.1,0.2-0.1,0.3c0,0.1,0.1,0.2,0.2,0.3c0.1,0.1,0.2,0.2,0.4,0.3l18.2,8.1c0.2,0.1,0.4,0.2,0.6,0.3
			c0.2,0.1,0.3,0.3,0.5,0.5c0.1,0.2,0.3,0.3,0.4,0.5c0.1,0.2,0.2,0.4,0.2,0.5l3,15.6c0,0.1,0.1,0.2,0.1,0.3c0,0.1,0.1,0.2,0.1,0.2
			c0.1,0.1,0.1,0.1,0.2,0.1c0.1,0,0.1,0,0.2,0c0,0,0.1,0,0.1,0c0,0,0.1,0,0.1,0c0,0,0.1,0,0.1-0.1c0,0,0.1-0.1,0.1-0.1l12.3-10.7
			c0.1-0.1,0.2-0.2,0.4-0.2c0.1-0.1,0.3-0.1,0.4-0.2c0.2,0,0.3-0.1,0.5-0.1c0.2,0,0.3,0,0.5-0.1c0.1,0,0.1,0,0.2,0
			c0.1,0,0.1,0,0.2,0c0.1,0,0.1,0,0.2,0c0,0,0.1,0,0.2,0l14.2,2.6c0,0,0.1,0,0.1,0c0,0,0.1,0,0.1,0c0,0,0.1,0,0.1,0c0,0,0.1,0,0.1,0
			c0.1,0,0.2,0,0.3-0.1c0.1,0,0.2-0.1,0.2-0.2c0-0.1,0.1-0.2,0-0.3c0-0.1-0.1-0.2-0.1-0.4l-6.9-12c-0.1-0.2-0.2-0.3-0.2-0.5
			c-0.1-0.2-0.1-0.4-0.1-0.6c0-0.2,0-0.4,0-0.6c0-0.2,0.1-0.4,0.1-0.5l4.5-9.8c0.1-0.1,0.1-0.3,0.1-0.4c0-0.1-0.1-0.2-0.2-0.3
			c-0.1-0.1-0.2-0.2-0.4-0.2c-0.2-0.1-0.3-0.1-0.5-0.1l-13-0.4c-0.2,0-0.4,0-0.7-0.1c-0.2-0.1-0.5-0.1-0.7-0.2
			c-0.2-0.1-0.5-0.2-0.7-0.3c-0.2-0.1-0.4-0.2-0.5-0.4L112,44.1c-0.1-0.1-0.1-0.1-0.2-0.1c-0.1,0-0.1-0.1-0.2-0.1
			c-0.1,0-0.1,0-0.2-0.1C111.4,43.7,111.3,43.7,111.2,43.7"/>
		<path style="clip-path:url(#SVGID_00000090274060649139381540000013265958962008496014_);fill:#173C67;" d="M218.5,262.6
			c1.8-0.1,3,0.8,3.4,2.5c0.3,1.5-0.4,2.6-1.6,3.9l-3.9,4.5c0,0-0.5,0.5-0.3,1.3c0.1,0.6,0.6,1,1.2,1l7.9-0.5c0.6,0,0.9-0.5,0.8-1
			c-0.1-0.5-0.6-0.9-1.2-0.9l-5.9,0.4l0-0.1l2.9-3.3c1.6-1.9,2.4-3.5,2-5.4c-0.6-2.6-2.7-4.4-5.7-4.2c-2.6,0.2-3.7,1.8-4,2.7
			c-0.1,0.4-0.2,0.6-0.1,1c0.1,0.5,0.6,0.9,1.1,0.9c0.5,0,0.6-0.2,0.8-0.9C216.2,263.5,216.8,262.7,218.5,262.6 M207,263.3
			c1.8-0.1,3,0.8,3.4,2.5c0.3,1.5-0.4,2.6-1.6,3.9l-3.9,4.5c0,0-0.5,0.5-0.3,1.3c0.1,0.6,0.6,1,1.2,1l7.9-0.5c0.6,0,0.9-0.5,0.8-1
			c-0.1-0.5-0.6-0.9-1.2-0.9l-5.9,0.4l0-0.1l2.9-3.3c1.6-1.9,2.4-3.5,2-5.4c-0.6-2.6-2.7-4.4-5.7-4.2c-2.6,0.2-3.7,1.8-4,2.7
			c-0.1,0.4-0.2,0.6-0.1,1c0.1,0.5,0.6,0.9,1.1,0.9c0.5,0,0.6-0.2,0.8-0.9C204.6,264.3,205.2,263.4,207,263.3 M199.7,272
			c0.4,1.9-0.5,3.3-2.4,3.5c-1.9,0.1-3.5-1.1-3.9-3.1l-1.1-4.9c-0.4-1.9,0.5-3.3,2.4-3.5c1.9-0.1,3.5,1.1,3.9,3.1L199.7,272z
			 M200.6,267c-0.7-2.9-3.2-5-6.2-4.8c-3.1,0.2-4.6,2.5-4,5.4l1.1,4.9c0.7,2.9,3.2,5,6.2,4.8c3.1-0.2,4.6-2.5,4-5.4L200.6,267z
			 M182.5,264.9c1.8-0.1,3,0.8,3.4,2.5c0.3,1.5-0.4,2.6-1.6,3.9l-3.9,4.5c0,0-0.5,0.5-0.3,1.3c0.1,0.6,0.6,1,1.2,1l7.9-0.5
			c0.6,0,0.9-0.5,0.8-1c-0.1-0.5-0.6-0.9-1.2-0.9L183,276l0-0.1l2.9-3.3c1.6-1.9,2.4-3.5,2-5.4c-0.6-2.6-2.7-4.4-5.7-4.2
			c-2.6,0.2-3.7,1.8-4,2.7c-0.1,0.4-0.2,0.6-0.1,1c0.1,0.5,0.6,0.9,1.1,0.9c0.5,0,0.6-0.2,0.8-0.9
			C180.2,265.8,180.8,265,182.5,264.9 M165.9,265.9c1.7-0.1,2.7,0.7,3.4,1.5c0.5,0.6,0.7,0.8,1.1,0.8c0.5,0,0.8-0.5,0.7-1
			c-0.1-0.4-0.2-0.6-0.5-1c-0.7-0.9-2.5-2.3-5.1-2.2c-3,0.2-4.3,2.1-3.8,4.4c1.1,5,8.8,2.9,9.5,6.1c0.3,1.3-0.6,2.6-2.7,2.8
			c-1.8,0.1-2.9-0.7-3.6-1.6c-0.4-0.5-0.7-0.8-1.1-0.8c-0.5,0-0.8,0.5-0.7,1c0.1,0.4,0.4,0.8,0.7,1.2c0.7,0.9,2.4,2.2,5.1,2
			c3.3-0.2,4.7-2.4,4.2-4.7c-1.1-5-8.8-2.9-9.5-6.1C163.3,267.1,164.1,266.1,165.9,265.9 M158.7,266.8c0.6,0,0.9-0.5,0.8-1
			c-0.1-0.5-0.6-0.9-1.2-0.9l-7.7,0.5c-0.6,0-0.9,0.5-0.8,1l2.8,12.4c0.1,0.5,0.6,0.9,1.2,0.9l7.9-0.5c0.6,0,0.9-0.5,0.8-1
			c-0.1-0.5-0.6-0.9-1.2-0.9l-6.9,0.4l-1-4.5l4.9-0.3c0.6,0,0.9-0.5,0.8-1c-0.1-0.5-0.6-0.9-1.2-0.9l-4.9,0.3l-1-4.3L158.7,266.8z
			 M138.6,269.9l8.4,9.6c0.4,0.5,0.9,0.9,1.5,0.8c0.7,0,1-0.6,0.9-1.2l-2.8-12.6c-0.1-0.5-0.6-0.9-1.2-0.9c-0.6,0-0.9,0.5-0.8,1
			l2.2,10l-0.1,0l-8.4-9.6c-0.4-0.5-0.9-0.9-1.5-0.8c-0.7,0-1,0.6-0.9,1.2l2.8,12.6c0.1,0.5,0.6,0.9,1.2,0.9c0.6,0,0.9-0.5,0.8-1
			L138.6,269.9L138.6,269.9z M124.7,270.8l8.4,9.6c0.4,0.5,0.9,0.9,1.5,0.8c0.7,0,1-0.6,0.9-1.2l-2.8-12.6c-0.1-0.5-0.6-0.9-1.2-0.9
			c-0.6,0-0.9,0.5-0.8,1l2.2,10l-0.1,0l-8.4-9.6c-0.4-0.5-0.9-0.9-1.5-0.8c-0.7,0-1,0.6-0.9,1.2l2.8,12.6c0.1,0.5,0.6,0.9,1.2,0.9
			c0.6,0,0.9-0.5,0.8-1L124.7,270.8L124.7,270.8z M114.5,270.2l0.1,0l3.7,6.3l-4.7,0.3L114.5,270.2z M121.1,281.1
			c0.4,0.6,0.7,0.9,1.2,0.9c0.6,0,0.9-0.5,0.8-1c-0.1-0.4-0.4-0.8-0.4-0.8l-7-11.5c-0.6-0.9-1.1-1.3-1.7-1.2c-0.7,0-1,0.5-1.1,1.4
			l-1.7,12.1c0,0-0.1,0.4,0,0.8c0.1,0.5,0.6,0.9,1.2,0.9c0.5,0,0.7-0.4,0.8-1l0.4-3l6-0.4L121.1,281.1z M98.6,278.1
			c0.7,3.2,3.4,5.4,6.6,5.1c2.8-0.2,3.8-1.7,4.1-2.6c0.1-0.4,0.2-0.8,0.1-1.2c-0.1-0.5-0.6-0.9-1.1-0.9c-0.5,0-0.6,0.4-0.8,0.9
			c-0.3,0.9-0.9,1.9-2.8,2c-2,0.1-3.8-1.3-4.3-3.4l-0.9-4.1c-0.5-2.1,0.6-3.8,2.6-3.9c1.7-0.1,2.7,0.7,3.4,1.5
			c0.5,0.6,0.7,0.8,1.1,0.8c0.5,0,0.8-0.5,0.7-1c-0.1-0.4-0.2-0.6-0.5-1c-0.7-0.9-2.5-2.3-5.1-2.2c-3.2,0.2-4.9,2.7-4.2,5.8
			L98.6,278.1z"/>
		<path style="clip-path:url(#SVGID_00000090274060649139381540000013265958962008496014_);fill:#173C67;" d="M290.5,233.2
			c1.7-0.1,2.7,0.7,3.4,1.5c0.5,0.6,0.7,0.8,1.1,0.8c0.5,0,0.8-0.5,0.7-1c-0.1-0.4-0.2-0.6-0.5-1c-0.7-0.9-2.5-2.3-5.1-2.2
			c-3,0.2-4.3,2.1-3.8,4.4c1.1,5,8.8,2.9,9.5,6.1c0.3,1.3-0.6,2.6-2.7,2.8c-1.8,0.1-2.9-0.7-3.6-1.6c-0.4-0.5-0.7-0.8-1.1-0.8
			c-0.5,0-0.8,0.5-0.7,1c0.1,0.4,0.4,0.8,0.7,1.2c0.7,0.9,2.4,2.2,5.1,2c3.3-0.2,4.7-2.4,4.2-4.7c-1.1-5-8.8-2.9-9.5-6.1
			C288,234.4,288.7,233.3,290.5,233.2 M276.7,239.4l-1.1-4.9l3.1-0.2c1.9-0.1,3.2,0.9,3.5,2.2c0.3,1.3-0.5,2.5-2.4,2.6L276.7,239.4z
			 M280.4,241l4.9,5.2c0.3,0.3,0.5,0.5,1,0.5c0.6,0,0.9-0.5,0.8-1c-0.1-0.4-0.6-0.9-0.6-0.9l-4.1-4.3l0-0.1c0,0,2.5-1,1.8-3.9
			c-0.6-2.5-2.6-4.2-5.9-4l-4,0.3c-0.6,0-0.9,0.5-0.8,1l2.8,12.6c0.1,0.5,0.6,0.9,1.2,0.9c0.6,0,0.9-0.5,0.8-1l-1.1-5L280.4,241z
			 M268.2,248c3.1-0.2,4.7-2.6,4-5.5l-2-8.7c-0.1-0.5-0.6-0.9-1.2-0.9c-0.6,0-0.9,0.5-0.8,1l2,8.7c0.4,1.9-0.6,3.4-2.5,3.6
			c-1.9,0.1-3.6-1.2-4-3.1l-2-8.7c-0.1-0.5-0.6-0.9-1.2-0.9c-0.6,0-0.9,0.5-0.8,1l2,8.7C262.5,246.1,265.1,248.2,268.2,248
			 M257.1,235.7c0.6,0,0.9-0.5,0.8-1s-0.6-0.9-1.2-0.9l-7.7,0.5c-0.6,0-0.9,0.5-0.8,1l2.8,12.4c0.1,0.5,0.6,0.9,1.2,0.9l7.9-0.5
			c0.6,0,0.9-0.5,0.8-1s-0.6-0.9-1.2-0.9l-6.9,0.4l-1-4.5l4.9-0.3c0.6,0,0.9-0.5,0.8-1s-0.6-0.9-1.2-0.9l-4.9,0.3l-1-4.3
			L257.1,235.7z M240.2,236.8l2.6,11.7c0.1,0.5,0.6,0.9,1.2,0.9c0.6,0,0.9-0.5,0.8-1l-2.6-11.7l3.5-0.2c0.6,0,0.9-0.5,0.8-1
			c-0.1-0.5-0.6-0.9-1.2-0.9l-8.9,0.6c-0.6,0-0.9,0.5-0.8,1s0.6,0.9,1.2,0.9L240.2,236.8z M230.6,238l0.1,0l3.7,6.3l-4.7,0.3
			L230.6,238z M237.2,248.9c0.4,0.6,0.7,0.9,1.2,0.9c0.6,0,0.9-0.5,0.8-1c-0.1-0.4-0.4-0.8-0.4-0.8l-7-11.5
			c-0.6-0.9-1.1-1.3-1.7-1.2c-0.7,0-1,0.5-1.1,1.4l-1.7,12.1c0,0-0.1,0.4,0,0.8c0.1,0.5,0.6,0.9,1.2,0.9c0.5,0,0.7-0.4,0.8-1l0.4-3
			l6-0.4L237.2,248.9z M218.1,237.8c1.7-0.1,2.7,0.7,3.4,1.5c0.5,0.6,0.7,0.8,1.1,0.8s0.8-0.5,0.7-1c-0.1-0.4-0.2-0.6-0.5-1
			c-0.7-0.9-2.5-2.3-5.1-2.2c-3,0.2-4.3,2.1-3.8,4.4c1.1,5,8.8,2.9,9.5,6.1c0.3,1.3-0.6,2.6-2.7,2.8c-1.8,0.1-2.9-0.7-3.6-1.6
			c-0.4-0.5-0.7-0.8-1.1-0.8c-0.5,0-0.8,0.5-0.7,1c0.1,0.4,0.4,0.8,0.7,1.2c0.7,0.9,2.4,2.2,5.1,2c3.3-0.2,4.7-2.4,4.2-4.7
			c-1.1-5-8.8-2.9-9.5-6.1C215.6,239,216.3,237.9,218.1,237.8 M210.5,237.6c-0.1-0.5-0.6-0.9-1.2-0.9c-0.6,0-0.9,0.5-0.8,1l2.9,12.8
			c0.1,0.5,0.6,0.9,1.2,0.9c0.6,0,0.9-0.5,0.8-1L210.5,237.6z M200,238.3c-0.1-0.5-0.6-0.9-1.2-0.9c-0.6,0-0.9,0.5-0.8,1l2.8,12.6
			c0.1,0.5,0.6,0.9,1.2,0.9l6.8-0.4c0.6,0,0.9-0.5,0.8-1c-0.1-0.5-0.6-0.9-1.2-0.9l-5.9,0.4L200,238.3z M190.5,240.5l0.1,0l3.7,6.3
			l-4.7,0.3L190.5,240.5z M197.1,251.5c0.4,0.6,0.7,0.9,1.2,0.9c0.6,0,0.9-0.5,0.8-1c-0.1-0.4-0.4-0.8-0.4-0.8l-7-11.5
			c-0.6-0.9-1.1-1.3-1.7-1.2c-0.7,0-1,0.5-1.1,1.4l-1.7,12.1c0,0-0.1,0.4,0,0.8c0.1,0.5,0.6,0.9,1.2,0.9c0.5,0,0.7-0.4,0.8-1l0.4-3
			l6-0.4L197.1,251.5z M177.9,237.5c0.3,0,0.5-0.3,0.6-0.5l1.2-2.1c0.1-0.2,0.2-0.4,0.1-0.8c-0.1-0.4-0.5-0.8-1-0.8
			c-0.4,0-0.5,0.2-0.7,0.6l-1,2.3c0,0-0.1,0.3-0.1,0.6C177.2,237.3,177.5,237.5,177.9,237.5 M182.6,240.5c0.6,0,0.9-0.5,0.8-1
			c-0.1-0.5-0.6-0.9-1.2-0.9l-7.7,0.5c-0.6,0-0.9,0.5-0.8,1l2.8,12.4c0.1,0.5,0.6,0.9,1.2,0.9l7.9-0.5c0.6,0,0.9-0.5,0.8-1
			s-0.6-0.9-1.2-0.9l-6.9,0.4l-1-4.5l4.9-0.3c0.6,0,0.9-0.5,0.8-1c-0.1-0.5-0.6-0.9-1.2-0.9l-4.9,0.3l-1-4.3L182.6,240.5z
			 M164.2,246.7l-1.1-4.9l3.1-0.2c1.9-0.1,3.2,0.9,3.5,2.2c0.3,1.3-0.5,2.5-2.4,2.6L164.2,246.7z M167.9,248.3l4.9,5.2
			c0.3,0.3,0.5,0.5,1,0.5c0.6,0,0.9-0.5,0.8-1c-0.1-0.4-0.6-0.9-0.6-0.9l-4.1-4.3l0-0.1c0,0,2.5-1,1.8-3.9c-0.6-2.5-2.6-4.2-5.9-4
			l-4,0.3c-0.6,0-0.9,0.5-0.8,1l2.8,12.6c0.1,0.5,0.6,0.9,1.2,0.9c0.6,0,0.9-0.5,0.8-1l-1.1-5L167.9,248.3z M148.6,242.3
			c1.7-0.1,2.7,0.7,3.4,1.5c0.5,0.6,0.7,0.8,1.1,0.8c0.5,0,0.8-0.5,0.7-1c-0.1-0.4-0.2-0.6-0.5-1c-0.7-0.9-2.5-2.3-5.1-2.2
			c-3,0.2-4.3,2.1-3.8,4.4c1.1,5,8.8,2.9,9.5,6.1c0.3,1.3-0.6,2.6-2.7,2.8c-1.8,0.1-2.9-0.7-3.6-1.6c-0.4-0.5-0.7-0.8-1.1-0.8
			c-0.5,0-0.8,0.5-0.7,1c0.1,0.4,0.4,0.8,0.7,1.2c0.7,0.9,2.4,2.2,5.1,2c3.3-0.2,4.7-2.4,4.2-4.7c-1.1-5-8.8-2.9-9.5-6.1
			C146,243.5,146.7,242.4,148.6,242.3 M141.3,243.2c0.6,0,0.9-0.5,0.8-1c-0.1-0.5-0.6-0.9-1.2-0.9l-7.7,0.5c-0.6,0-0.9,0.5-0.8,1
			l2.8,12.4c0.1,0.5,0.6,0.9,1.2,0.9l7.9-0.5c0.6,0,0.9-0.5,0.8-1c-0.1-0.5-0.6-0.9-1.2-0.9l-6.9,0.4l-1-4.5l4.9-0.3
			c0.6,0,0.9-0.5,0.8-1s-0.6-0.9-1.2-0.9l-4.9,0.3l-1-4.3L141.3,243.2z M124.2,244.3c2.1-0.1,3.9,1.3,4.4,3.4l0.7,3.3
			c0.5,2.1-0.6,3.8-2.7,3.9l-2.9,0.2l-2.4-10.6L124.2,244.3z M130.5,247.6c-0.7-3.2-3.4-5.3-6.7-5.1l-3.8,0.2c-0.6,0-0.9,0.5-0.8,1
			l2.8,12.4c0.1,0.5,0.6,0.9,1.2,0.9l3.8-0.2c3.3-0.2,5-2.7,4.2-5.8L130.5,247.6z M111.4,245.1c0.6,0,0.9-0.5,0.8-1
			c-0.1-0.5-0.6-0.9-1.2-0.9l-7.7,0.5c-0.6,0-0.9,0.5-0.8,1l2.8,12.4c0.1,0.5,0.6,0.9,1.2,0.9l7.9-0.5c0.6,0,0.9-0.5,0.8-1
			c-0.1-0.5-0.6-0.9-1.2-0.9l-6.9,0.4l-1-4.5l4.9-0.3c0.6,0,0.9-0.5,0.8-1c-0.1-0.5-0.6-0.9-1.2-0.9l-4.9,0.3l-1-4.3L111.4,245.1z
			 M91.3,248.1l8.4,9.6c0.4,0.5,0.9,0.9,1.5,0.8c0.7,0,1-0.6,0.9-1.2l-2.8-12.6c-0.1-0.5-0.6-0.9-1.2-0.9s-0.9,0.5-0.8,1l2.2,10
			l-0.1,0l-8.4-9.6c-0.4-0.5-0.9-0.9-1.5-0.8c-0.7,0-1,0.6-0.9,1.2l2.8,12.6c0.1,0.5,0.6,0.9,1.2,0.9c0.6,0,0.9-0.5,0.8-1
			L91.3,248.1L91.3,248.1z M85.4,245.6c-0.1-0.5-0.6-0.9-1.2-0.9c-0.6,0-0.9,0.5-0.8,1l2.9,12.8c0.1,0.5,0.6,0.9,1.2,0.9
			c0.6,0,0.9-0.5,0.8-1L85.4,245.6z M75.9,247.9l0.1,0l3.7,6.3l-4.7,0.3L75.9,247.9z M82.5,258.8c0.4,0.6,0.7,0.9,1.2,0.9
			c0.6,0,0.9-0.5,0.8-1c-0.1-0.4-0.4-0.8-0.4-0.8l-7-11.5c-0.6-0.9-1.1-1.3-1.7-1.2c-0.7,0-1,0.5-1.1,1.4l-1.7,12.1
			c0,0-0.1,0.4,0,0.8c0.1,0.5,0.6,0.9,1.2,0.9c0.5,0,0.7-0.4,0.8-1l0.4-3l6-0.4L82.5,258.8z M61.7,258.9c-0.1,0.2-0.3,0.5-0.2,1
			c0.1,0.5,0.6,0.9,1.2,0.9l8.2-0.5c0.6,0,0.9-0.5,0.8-1c-0.1-0.5-0.6-0.9-1.2-0.9l-6.5,0.4l0-0.1l4.6-10.8c0.1-0.2,0.3-0.5,0.2-1
			c-0.1-0.5-0.6-0.9-1.2-0.9l-7.8,0.5c-0.6,0-0.9,0.5-0.8,1c0.1,0.5,0.6,0.9,1.2,0.9l6.2-0.4l0,0.1L61.7,258.9z M48.7,250.9l8.4,9.6
			c0.4,0.5,0.9,0.9,1.5,0.8c0.7,0,1-0.6,0.9-1.2l-2.8-12.6c-0.1-0.5-0.6-0.9-1.2-0.9c-0.6,0-0.9,0.5-0.8,1l2.2,10l-0.1,0l-8.4-9.6
			c-0.4-0.5-0.9-0.9-1.5-0.8c-0.7,0-1,0.6-0.9,1.2l2.8,12.6c0.1,0.5,0.6,0.9,1.2,0.9c0.6,0,0.9-0.5,0.8-1L48.7,250.9L48.7,250.9z
			 M42.8,248.4c-0.1-0.5-0.6-0.9-1.2-0.9c-0.6,0-0.9,0.5-0.8,1l2.9,12.8c0.1,0.5,0.6,0.9,1.2,0.9c0.6,0,0.9-0.5,0.8-1L42.8,248.4z
			 M35.6,263c3.1-0.2,4.7-2.6,4-5.5l-2-8.7c-0.1-0.5-0.6-0.9-1.2-0.9c-0.6,0-0.9,0.5-0.8,1l2,8.7c0.4,1.9-0.6,3.4-2.5,3.6
			c-1.9,0.1-3.6-1.2-4-3.1l-2-8.7c-0.1-0.5-0.6-0.9-1.2-0.9c-0.6,0-0.9,0.5-0.8,1l2,8.7C29.9,261.1,32.5,263.2,35.6,263 M24.4,258.1
			c0.3,1.1,0,1.9,0,1.9l-1.5-1.3c-0.5-0.5-0.9-0.8-1.3-0.7c-0.6,0-0.9,0.5-0.8,1c0.1,0.4,0.3,0.6,0.6,0.8l2,1.7c0,0-0.6,0.6-1.8,0.6
			c-2.1,0.1-3.9-1.3-4.4-3.4l-0.9-4.1c-0.5-2.1,0.6-3.8,2.7-3.9c2.1-0.1,3.9,1.3,4.4,3.4L24.4,258.1z M25.4,253.9
			c-0.7-3.2-3.4-5.3-6.7-5.1c-3.3,0.2-5,2.7-4.2,5.8l0.9,4.1c0.7,3.2,3.4,5.4,6.7,5.1c2-0.1,2.9-1,2.9-1l0.9,0.8
			c0.5,0.5,0.9,0.8,1.3,0.7c0.6,0,0.9-0.5,0.8-1c-0.1-0.4-0.3-0.6-0.6-0.8l-1.3-1.2c0,0,0.8-1.3,0.3-3.4L25.4,253.9z"/>
	</g>
</g>
</svg>
