<svg id="Layer_1" enable-background="new 0 0 512 512" height="512" viewBox="0 0 512 512" width="512" xmlns="http://www.w3.org/2000/svg"><g><g><path clip-rule="evenodd" d="m512 404h-512v-44l15-15-15-14v-223h512v43l-17 15 17 15v30l-17 16 17 14v31l-17 15 17 14v29l-17 14 17 17z" fill="#fff4f4" fill-rule="evenodd"/></g><path clip-rule="evenodd" d="m512 108h-256.021v296h256.021v-43l-17-17 17-14v-29l-17-14 17-15v-31l-17-14 17-16v-30l-17-15 17-15z" fill="#f6efea" fill-rule="evenodd"/><g><path d="m213 271h299v30h-299z" fill="#ff8856"/></g><g><path d="m250 151.001h262v30h-262z" fill="#ff435b"/></g><path d="m512 106c0-8.284-6.716-15-15-15h-249c-8.284 0-15 6.716-15 15s6.716 15 15 15h264s0-14.82 0-15z" fill="#ff8856"/><g><path d="m243 211.001h269v30h-269z" fill="#ff435b"/></g><g><g><path d="m241 301h-226c-8.284 0-15-6.716-15-15v-180c0-8.284 6.716-15 15-15h226c8.284 0 15 6.716 15 15v180c0 8.284-6.716 15-15 15z" fill="#4793ff"/></g></g><g><path d="m0 331.001h512v30h-512z" fill="#ff8856"/></g><g clip-rule="evenodd" fill="#fff4f4" fill-rule="evenodd"><path d="m68 181c8.262 0 15-6.738 15-15s-6.738-15-15-15-15 6.739-15 15c0 8.262 6.738 15 15 15z"/><path d="m128 181c8.262 0 15-6.738 15-15s-6.738-15-15-15-15 6.739-15 15c0 8.262 6.738 15 15 15z"/><path d="m188 181c8.262 0 15-6.738 15-15s-6.738-15-15-15-15 6.739-15 15c0 8.262 6.738 15 15 15z"/><path d="m98 210c8.262 0 15-6.738 15-15s-6.738-15-15-15-15 6.738-15 15 6.739 15 15 15z"/><path d="m158 210c8.262 0 15-6.738 15-15s-6.738-15-15-15-15 6.738-15 15 6.738 15 15 15z"/><path d="m68 241c8.262 0 15-6.738 15-15s-6.738-15-15-15-15 6.738-15 15 6.738 15 15 15z"/><path d="m128 241c8.262 0 15-6.738 15-15s-6.738-15-15-15-15 6.738-15 15 6.738 15 15 15z"/><path d="m188 241c8.262 0 15-6.738 15-15s-6.738-15-15-15-15 6.738-15 15 6.738 15 15 15z"/></g><path d="m0 391v15.872h.047c.454 7.877 6.966 14.128 14.955 14.128h481.998c7.99 0 14.502-6.252 14.956-14.128h.044v-15.872z" fill="#ff8856"/><g fill="#ff435b"><path d="m255.979 331.001h256.021v30h-256.021z"/><path d="m255.979 391v30h241.021c7.99 0 14.502-6.252 14.956-14.128h.044v-15.872z"/><path d="m497 91h-241.021v30h256.021s0-14.82 0-15c0-8.284-6.716-15-15-15z"/><path d="m255.979 271h256.021v30h-256.021z"/></g></g></svg>